<svg width="32" height="32" viewBox="0 0 32 32" fill="none" xmlns="http://www.w3.org/2000/svg">
<path d="M24 20.5H25C25.55 20.5 26 20.05 26 19.5C26 18.95 25.55 18.5 25 18.5H24C23.45 18.5 23 18.95 23 19.5C23 20.05 23.45 20.5 24 20.5Z" fill="#EB30A2"/>
<path d="M25 22H24C23.45 22 23 22.45 23 23C23 23.55 23.45 24 24 24H25C25.55 24 26 23.55 26 23C26 22.45 25.55 22 25 22Z" fill="#EB30A2"/>
<path d="M25 25.5H24C23.45 25.5 23 25.95 23 26.5C23 27.05 23.45 27.5 24 27.5H25C25.55 27.5 26 27.05 26 26.5C26 25.95 25.55 25.5 25 25.5Z" fill="#EB30A2"/>
<path d="M30 29H29V16C29 15.45 28.55 15 28 15H27.5V12C27.5 11.45 27.05 11 26.5 11H25.5V8C25.5 7.45 25.05 7 24.5 7C23.95 7 23.5 7.45 23.5 8V11H22.5C21.95 11 21.5 11.45 21.5 12V15H21C20.45 15 20 15.45 20 16V29H12V16C12 15.45 11.55 15 11 15H10.5V12C10.5 11.45 10.05 11 9.5 11H8.5V8C8.5 7.45 8.05 7 7.5 7C6.95 7 6.5 7.45 6.5 8V11H5.5C4.95 11 4.5 11.45 4.5 12V15H4C3.45 15 3 15.45 3 16V29H2C1.45 29 1 29.45 1 30C1 30.55 1.45 31 2 31H30C30.55 31 31 30.55 31 30C31 29.45 30.55 29 30 29ZM23.5 13H25.5V15H23.5V13ZM22 17H27V29H22V17ZM6.5 13H8.5V15H6.5V13ZM5 17H10V29H5V17Z" fill="#EB30A2"/>
<path d="M7 20.5H8C8.55 20.5 9 20.05 9 19.5C9 18.95 8.55 18.5 8 18.5H7C6.45 18.5 6 18.95 6 19.5C6 20.05 6.45 20.5 7 20.5Z" fill="#EB30A2"/>
<path d="M8 22H7C6.45 22 6 22.45 6 23C6 23.55 6.45 24 7 24H8C8.55 24 9 23.55 9 23C9 22.45 8.55 22 8 22Z" fill="#EB30A2"/>
<path d="M8 25.5H7C6.45 25.5 6 25.95 6 26.5C6 27.05 6.45 27.5 7 27.5H8C8.55 27.5 9 27.05 9 26.5C9 25.95 8.55 25.5 8 25.5Z" fill="#EB30A2"/>
<path d="M13.2864 5.95984C12.8964 6.35984 12.9064 6.98984 13.3064 7.36984C13.6964 7.75984 14.3364 7.74984 14.7164 7.34984C15.4064 6.64984 16.5964 6.64984 17.2864 7.34984C17.4864 7.54984 17.7464 7.64984 17.9964 7.64984C18.2464 7.64984 18.4964 7.55984 18.6964 7.35984C19.0864 6.96984 19.0964 6.33984 18.7164 5.94984C17.2664 4.46984 14.7364 4.46984 13.2864 5.94984V5.95984Z" fill="#1DA1F2"/>
<path d="M20.7064 3C19.4464 1.71 17.7764 1 15.9964 1C14.2164 1 12.5364 1.71 11.2864 3C10.8964 3.4 10.9064 4.03 11.3064 4.41C11.7064 4.8 12.3364 4.79 12.7164 4.39C13.5964 3.49 14.7664 3 16.0064 3C17.2464 3 18.4164 3.49 19.2964 4.39C19.4964 4.59 19.7564 4.69 20.0064 4.69C20.2564 4.69 20.5064 4.6 20.7064 4.4C21.0964 4.01 21.1064 3.38 20.7264 2.99L20.7064 3Z" fill="#1DA1F2"/>
<path d="M16.2156 10.1992C16.7656 10.1992 17.2156 9.74922 17.2156 9.19922C17.2156 8.64922 16.7656 8.19922 16.2156 8.19922H15.7656C15.2156 8.19922 14.7656 8.64922 14.7656 9.19922C14.7656 9.74922 15.2156 10.1992 15.7656 10.1992H16.2156Z" fill="#1DA1F2"/>
<path d="M14 27H18V17H14V27ZM15.5 19.25H16.5C17.05 19.25 17.5 19.7 17.5 20.25C17.5 20.8 17.05 21.25 16.5 21.25H15.5C14.95 21.25 14.5 20.8 14.5 20.25C14.5 19.7 14.95 19.25 15.5 19.25ZM15.5 22.75H16.5C17.05 22.75 17.5 23.2 17.5 23.75C17.5 24.3 17.05 24.75 16.5 24.75H15.5C14.95 24.75 14.5 24.3 14.5 23.75C14.5 23.2 14.95 22.75 15.5 22.75Z" fill="#1DA1F2"/>
</svg>
